# xmcd CD database file
#
# Track frame offsets:
#	150
#	12077
#	25445
#
# Disc length: 496 seconds
#
# Revision: 2
# Processed by: cddbd v1.5.2PL0 Copyright (c) Steve Scherf et al.
# Submitted via: CDex 1.70beta3
#
DISCID=1901ee03
DTITLE=Bleach - カナリヤ帝国の逆襲
DYEAR=2003
DGENRE=Rock
TTITLE0=太陽
TTITLE1=カナリヤ帝国の逆襲
TTITLE2=ハウリング
EXTD=YEAR: 2003
EXTT0=
EXTT1=
EXTT2=
PLAYORDER=
